<?xml version="1.0" encoding="utf-8"?><!-- Uploaded to: SVG Repo, www.svgrepo.com, Generator: SVG Repo Mixer Tools -->
<svg fill="#000000" width="800px" height="800px" viewBox="0 0 24 24" id="folder-alert-left" data-name="Flat Line" xmlns="http://www.w3.org/2000/svg" class="icon flat-line"><path id="secondary" d="M21,19V8a1,1,0,0,0-1-1H13.41a1,1,0,0,1-.7-.29L10.29,4.29A1,1,0,0,0,9.59,4H4A1,1,0,0,0,3,5V19a1,1,0,0,0,1,1H20A1,1,0,0,0,21,19Z" style="fill: rgb(44, 169, 188); stroke-width: 2;"></path><line id="primary-upstroke" x1="6.95" y1="19.5" x2="7.05" y2="19.5" style="fill: none; stroke: rgb(0, 0, 0); stroke-linecap: round; stroke-linejoin: round; stroke-width: 2.5;"></line><path id="primary" d="M12,20h8a1,1,0,0,0,1-1V8a1,1,0,0,0-1-1H13.41a1,1,0,0,1-.7-.29L10.29,4.29A1,1,0,0,0,9.59,4H4A1,1,0,0,0,3,5v6" style="fill: none; stroke: rgb(0, 0, 0); stroke-linecap: round; stroke-linejoin: round; stroke-width: 2;"></path><line id="primary-2" data-name="primary" x1="7" y1="15" x2="7" y2="12" style="fill: none; stroke: rgb(0, 0, 0); stroke-linecap: round; stroke-linejoin: round; stroke-width: 2;"></line></svg>